<svg xmlns="http://www.w3.org/2000/svg" xmlns:xlink="http://www.w3.org/1999/xlink" width="1538" height="1188.23" viewBox="0 0 1538 1188.23">
  <defs>
    <linearGradient id="linear-gradient" x1="0.5" x2="0.5" y2="1" gradientUnits="objectBoundingBox">
      <stop offset="0" stop-color="#fdda76"/>
      <stop offset="0.176" stop-color="#fdd365"/>
      <stop offset="0.377" stop-color="#f6c34e"/>
      <stop offset="0.598" stop-color="#dda534"/>
      <stop offset="0.745" stop-color="#e4ad39"/>
      <stop offset="0.87" stop-color="#fdcb58"/>
      <stop offset="1" stop-color="#fdff8f"/>
    </linearGradient>
  </defs>
  <g id="Group_992" data-name="Group 992" transform="translate(-1168 -435.77)">
    <text id="Smartköp" transform="translate(1168 1571)" fill="#4b160f" font-size="271" font-family="Multicolore"><tspan x="0" y="0">Smartköp</tspan></text>
    <g id="Group_991" data-name="Group 991" transform="translate(1539 435.77)">
      <path id="Path_495" data-name="Path 495" d="M1042.8,407.191H556.2c-15.964,0-22.964-2.9-25.61-20.915-11.354-76.319-24.842-152.381-37.562-228.529-3.329-19.805-9.988-25.61-30.391-25.61h-48.83c-23.39-.768-36.452-13.4-35.939-33.635S391.7,68.026,414.41,67.77h38.415c61.208,0,87.587,20.061,104.575,81.014h588.607c26.806,0,32.013,6.4,26.208,32.7-3.756,17.074-7.854,34.147-12.037,51.22-5.464,21.769-19.72,32.7-38.074,29.879s-28.342-17.586-27.318-40.037a59.472,59.472,0,0,0-.6-6.147H568.839c2.817,18.781,5.293,36.879,8.537,54.806s7.427,35.342,8.536,53.269c1.11,14.939,7.939,17.074,21.171,17.074q231.174-.6,462.264,0h55.489c-.939,6.317-1.2,10.756-2.22,15.11q-24.842,106.795-49.854,213.419c-6.061,26.208-10.5,29.964-37.818,29.964H762.794c-40.72,0-81.526.939-121.99-2.39-38.245-3.159-64.964-26.122-80.843-60.952a32.7,32.7,0,0,1,13.4-45.074c17.073-8.537,35.171-2.476,44.9,17.074a45.586,45.586,0,0,0,45.757,27.488q165.7-1.11,331.481,0c13.488,0,19.293-3.415,22.025-17.073,7.341-36.2,16.305-72.136,25.61-110.978" transform="translate(-377.858 -67.77)" fill="url(#linear-gradient)"/>
      <path id="Path_496" data-name="Path 496" d="M623.168,89.06H809.781a31.33,31.33,0,0,1,33.379,30.562A32.354,32.354,0,0,1,814.05,153a110.97,110.97,0,0,1-17.073.768H446.97a61.636,61.636,0,0,1-26.72-5.634,28.939,28.939,0,0,1-13.915-35.94A29.451,29.451,0,0,1,436.47,89.06h186.7" transform="translate(-177.195 92.175)" fill="#4b160f"/>
      <path id="Path_497" data-name="Path 497" d="M522.875,131.008a88.953,88.953,0,0,1,90.233,90.4,90.4,90.4,0,1,1-90.233-90.4m24.5,89.38a24.416,24.416,0,0,0-24.16-24.415,24.074,24.074,0,0,0-25.608,24.586A25.1,25.1,0,0,0,521.595,245.4a25.611,25.611,0,0,0,25.61-25.1" transform="translate(32.453 408.77)" fill="#4b160f"/>
      <path id="Path_498" data-name="Path 498" d="M490.286,131a89.636,89.636,0,1,1-89.636,89.636A89.636,89.636,0,0,1,490.286,131m-1.28,114.648a25.61,25.61,0,0,0,24.672-26.208,22.451,22.451,0,0,0-23.391-23.049,24.842,24.842,0,0,0-25.61,24.757,25.61,25.61,0,0,0,24.586,24.5" transform="translate(-206.084 408.779)" fill="#4b160f"/>
      <path id="Path_499" data-name="Path 499" d="M581.639,176.029H449.149c-23.988,0-39.183-12.805-39.269-32.354s15.2-32.525,39.1-32.525H717.373c24.244,0,38.33,12.549,37.9,33.123s-14.171,31.671-37.647,31.671h-135.9" transform="translate(-136.52 259.174)" fill="#4b160f"/>
      <path id="Path_500" data-name="Path 500" d="M489.574,163.034a25.61,25.61,0,0,1-25.61,25.1,25.1,25.1,0,0,1-23.988-24.842,24.074,24.074,0,0,1,25.61-24.586,24.415,24.415,0,0,1,24.159,24.415" transform="translate(90.255 466.466)" fill="#fff"/>
      <path id="Path_501" data-name="Path 501" d="M432.706,187.935a25.611,25.611,0,0,1-24.586-24.5,24.842,24.842,0,0,1,25.61-24.757,22.451,22.451,0,0,1,23.391,23.049,25.61,25.61,0,0,1-24.671,26.208" transform="translate(-149.784 466.492)" fill="#fff"/>
    </g>
  </g>
</svg>
