<svg xmlns="http://www.w3.org/2000/svg" xmlns:xlink="http://www.w3.org/1999/xlink" width="1398" height="550" viewBox="0 0 1398 550">
  <defs>
    <clipPath id="clip-path">
      <rect id="Rectangle_1514" data-name="Rectangle 1514" width="1398" height="550" transform="translate(187 170)" fill="#fff" stroke="#707070" stroke-width="1"/>
    </clipPath>
    <linearGradient id="linear-gradient" x1="0.5" x2="0.5" y2="1" gradientUnits="objectBoundingBox">
      <stop offset="0" stop-color="#fdda76"/>
      <stop offset="0.176" stop-color="#fdd365"/>
      <stop offset="0.377" stop-color="#f6c34e"/>
      <stop offset="0.598" stop-color="#dda534"/>
      <stop offset="0.745" stop-color="#e4ad39"/>
      <stop offset="0.87" stop-color="#fdcb58"/>
      <stop offset="1" stop-color="#fdff8f"/>
    </linearGradient>
  </defs>
  <g id="Mask_Group_8" data-name="Mask Group 8" transform="translate(-187 -170)" clip-path="url(#clip-path)" style="isolation: isolate">
    <g id="undraw_page_not_found_su7k" transform="translate(379.365 170)">
      <ellipse id="Ellipse_166" data-name="Ellipse 166" cx="497.308" cy="32.923" rx="497.308" ry="32.923" transform="translate(12.39 484.946)" fill="#fafafa"/>
      <path id="Path_234" data-name="Path 234" d="M586.047,333.107c-81.025,0-139.2,51.983-139.2,173.278,0,137.467,58.175,173.856,139.2,173.856s142.666-39.854,142.666-173.856C728.712,363.143,667.072,333.107,586.047,333.107Zm.533,301.5c-56.12,0-85.439-32.924-85.439-128.137,0-84.011,30.519-128.315,86.639-128.315s86.639,29.1,86.639,128.315c0,92.813-31.72,128.138-87.839,128.138Z" transform="translate(-95.409 -175.657)" fill="#4b160f"/>
      <path id="Path_235" data-name="Path 235" d="M372.091,585.554h-33.5V486.9a19.756,19.756,0,0,0-19.757-19.756h-7.85A19.756,19.756,0,0,0,291.228,486.9v98.65H196.735a11.279,11.279,0,0,1-9.972-16.547l100.01-189.288a19.756,19.756,0,0,0-9.032-27.094l-5.9-2.788a19.757,19.757,0,0,0-25.859,8.551L124,586.567a26.789,26.789,0,0,0-3.164,12.629h0a26.789,26.789,0,0,0,26.789,26.789h143.6v62.38a23.681,23.681,0,0,0,23.681,23.681h0a23.681,23.681,0,0,0,23.681-23.681v-62.38h33.5a20.216,20.216,0,0,0,20.216-20.216h0a20.216,20.216,0,0,0-20.216-20.216Z" transform="translate(-69.171 -176.851)" fill="url(#linear-gradient)"/>
      <path id="Path_236" data-name="Path 236" d="M1046.72,585.554h-33.5V486.9a19.756,19.756,0,0,0-19.754-19.756h-7.85A19.756,19.756,0,0,0,965.859,486.9v98.65H871.365a11.279,11.279,0,0,1-9.972-16.547L961.4,379.719a19.756,19.756,0,0,0-9.032-27.094l-5.9-2.788a19.757,19.757,0,0,0-25.859,8.551L798.633,586.567a26.789,26.789,0,0,0-3.164,12.629h0a26.79,26.79,0,0,0,26.789,26.789h143.6v62.38a23.681,23.681,0,0,0,23.681,23.681h0a23.681,23.681,0,0,0,23.681-23.681v-62.38h33.5a20.216,20.216,0,0,0,20.216-20.216h0a20.216,20.216,0,0,0-20.217-20.216Z" transform="translate(-123.466 -176.851)" fill="url(#linear-gradient)"/>
      <path id="Path_237" data-name="Path 237" d="M382.141,572.992h-33.5v-98.65a19.756,19.756,0,0,0-19.756-19.756h-7.85a19.756,19.756,0,0,0-19.756,19.757v98.65H206.785a11.279,11.279,0,0,1-9.972-16.547L296.823,367.156a19.756,19.756,0,0,0-9.032-27.094l-5.9-2.788a19.756,19.756,0,0,0-25.859,8.551L134.052,574a26.79,26.79,0,0,0-3.164,12.629h0a26.789,26.789,0,0,0,26.789,26.789h143.6V675.8a23.681,23.681,0,0,0,23.681,23.681h0A23.681,23.681,0,0,0,348.64,675.8v-62.38h33.5a20.216,20.216,0,0,0,20.216-20.216h0a20.216,20.216,0,0,0-20.215-20.216Z" transform="translate(-69.98 -175.84)" fill="none" stroke="#4b160f" stroke-miterlimit="10" stroke-width="1.025"/>
      <path id="Path_238" data-name="Path 238" d="M1065.564,572.992h-33.5v-98.65a19.756,19.756,0,0,0-19.756-19.756h-7.848A19.756,19.756,0,0,0,984.7,474.342v98.65H890.21a11.278,11.278,0,0,1-9.972-16.547L980.248,367.156a19.756,19.756,0,0,0-9.032-27.094l-5.9-2.788a19.756,19.756,0,0,0-25.859,8.551L817.476,574a26.79,26.79,0,0,0-3.164,12.629h0A26.79,26.79,0,0,0,841.1,613.423H984.7V675.8a23.681,23.681,0,0,0,23.681,23.681h0a23.681,23.681,0,0,0,23.681-23.682v-62.38h33.5a20.216,20.216,0,0,0,20.216-20.216h0a20.216,20.216,0,0,0-20.217-20.216Z" transform="translate(-124.983 -175.84)" fill="none" stroke="#4b160f" stroke-miterlimit="10" stroke-width="1.025"/>
      <path id="Path_239" data-name="Path 239" d="M606.147,321.8c-81.025,0-139.2,51.983-139.2,173.278,0,137.467,58.175,173.856,139.2,173.856s142.666-39.854,142.666-173.856C748.813,351.836,687.172,321.8,606.147,321.8Zm.533,301.5c-56.12,0-85.439-32.924-85.439-128.137,0-84.011,30.519-128.315,86.639-128.315s86.639,29.1,86.639,128.315c0,92.813-31.719,128.138-87.839,128.138Z" transform="translate(-97.026 -174.747)" fill="none" stroke="#f6c34e" stroke-miterlimit="10" stroke-width="1.025"/>
      <circle id="Ellipse_167" data-name="Ellipse 167" cx="12.163" cy="12.163" r="12.163" transform="translate(432.011 5.043)" fill="#2f2e41"/>
      <ellipse id="Ellipse_168" data-name="Ellipse 168" cx="34.115" cy="44.201" rx="34.115" ry="44.201" transform="translate(439.724 0)" fill="#2f2e41"/>
      <path id="Path_240" data-name="Path 240" d="M576.975,240.213c-17.09,0-31.244-16.282-33.728-37.527a57.461,57.461,0,0,0-.387,6.675c0,24.412,15.274,44.2,34.115,44.2s34.115-19.79,34.115-44.2a57.5,57.5,0,0,0-.387-6.675C608.22,223.932,594.065,240.213,576.975,240.213Z" transform="translate(-103.136 -165.16)" opacity="0.1"/>
      <path id="Path_241" data-name="Path 241" d="M650.939,349.647c-.733,3.011-3.892,5.422-7.39,7.106-7.355,3.542-16.428,4.6-25.228,4.953a42.6,42.6,0,0,1-6.736-.124,19.362,19.362,0,0,1-11.549-5.309,1.585,1.585,0,0,1,.041-2.681c4.685-5.146,12.5-8.3,20.379-10.574,5.972-1.723,16.386-6.185,22.9-5.583C649.665,338.019,651.864,345.846,650.939,349.647Z" transform="translate(-107.68 -176.001)" fill="#3f3d56"/>
      <path id="Path_242" data-name="Path 242" d="M650.939,349.647c-.733,3.011-3.892,5.422-7.39,7.106-7.355,3.542-16.428,4.6-25.228,4.953a42.6,42.6,0,0,1-6.736-.124,19.362,19.362,0,0,1-11.549-5.309,1.585,1.585,0,0,1,.041-2.681c4.685-5.146,12.5-8.3,20.379-10.574,5.972-1.723,16.386-6.185,22.9-5.583C649.665,338.019,651.864,345.846,650.939,349.647Z" transform="translate(-107.68 -176.001)" fill="#3a1d19"/>
      <path id="Path_243" data-name="Path 243" d="M553.573,321.947a18.639,18.639,0,0,0-1.13,14.212,24.83,24.83,0,0,0,8.324,11.782c9.517,7.628,22.615,8.678,34.811,8.572a268.362,268.362,0,0,0,31.965-2.191,38.216,38.216,0,0,0,10.372-2.408,15.9,15.9,0,0,0,8.9-8.981c1.417-4.1.411-9.119-2.954-11.855-2.957-2.4-7.035-2.734-10.84-2.963l-21.766-1.308c2.15-2.176,5.014-3.407,7.633-4.989,3.474-2.1,5.783-5.623,8.309-8.8a121.614,121.614,0,0,1,12.669-13.026c.708,4.064,3.279,7.4,6.3,10.2s6.513,5.061,9.658,7.731c7.616,6.466,13.1,15.242,21.111,21.213a41.319,41.319,0,0,0,15.13-7.554l-3.113-5.639a3.713,3.713,0,0,0-1.173-1.464c-.881-.542-2.017-.263-3.04-.416-2.735-.41-3.929-3.567-5-6.116-2.946-7-8.587-12.426-13.4-18.293a92.411,92.411,0,0,1-9.424-13.88c-1.618-2.924-3.1-5.969-5.3-8.488s-5.273-4.5-8.615-4.507c-2.953-.006-5.677,1.493-8.216,3A217.26,217.26,0,0,0,612.5,290.961c-3.718,2.886-7.413,5.936-11.774,7.706-1.836.745-3.771,1.254-5.533,2.161-3.086,1.588-5.428,4.275-7.949,6.66A52.835,52.835,0,0,1,553.573,321.947Z" transform="translate(-103.835 -170.802)" fill="#3e130e"/>
      <path id="Path_244" data-name="Path 244" d="M600.8,257.015a22.412,22.412,0,0,1-1.635,7.574,9.47,9.47,0,0,1-5.438,5.254,11.666,11.666,0,0,1-5.3.172,10.258,10.258,0,0,1-4.319-1.471c-2.041-1.4-3.058-3.907-3.429-6.357s-.2-4.948-.442-7.413a40.494,40.494,0,0,0-1.133-5.9c-.16-.644-.323-1.284-.484-1.925s-.312-1.282-.454-1.922c-.131-.6-.252-1.207-.356-1.816-.086-.513-.163-1.029-.22-1.549a17.368,17.368,0,0,0-.762-4.536,13.768,13.768,0,0,0-1.59-2.691c-.27-.386-.531-.771-.771-1.172a5.553,5.553,0,0,1-.917-3.533,3.093,3.093,0,0,1,.139-.567c.024-.071.05-.142.08-.211a1.7,1.7,0,0,0,1.16-1.083,3.237,3.237,0,0,0-.139-1.676,10.666,10.666,0,0,0-.9-2.157c-.249-.451-1.095-1.264-1.1-1.78-.012-1.038,2.017-1.875,2.839-2.284a15.834,15.834,0,0,1,8.1-1.643c1.795.122,3.741.673,4.732,2.177.89,1.356.771,3.112,1.151,4.687a1.387,1.387,0,0,0,.282.626,1.265,1.265,0,0,0,.7.32,4.288,4.288,0,0,0,1.335.053h0a2.755,2.755,0,0,0,.35-.05,4.675,4.675,0,0,0,1.917-.828q.552-.147,1.112-.24a.239.239,0,0,0,.044-.009c1.486,4.69,1.679,9.718,2.9,14.494a37.194,37.194,0,0,1,1.587,7.167c.009.107.012.217.015.326.018.786-.045,1.578-.012,2.361a6.578,6.578,0,0,0,.119,1.05,14.689,14.689,0,0,0,.5,1.643l.009.027c.056.172.11.347.154.522.033.128.062.252.086.38l0,.009A14.082,14.082,0,0,1,600.8,257.015Z" transform="translate(-105.544 -166.417)" fill="#fbbebe"/>
      <circle id="Ellipse_169" data-name="Ellipse 169" cx="17.502" cy="17.502" r="17.502" transform="translate(456.93 24.919)" fill="#fbbebe"/>
      <path id="Path_245" data-name="Path 245" d="M692.566,304.78a28.7,28.7,0,0,0-4.936-13.3q.681,4.049,1.365,8.1a3.03,3.03,0,0,1-3.174-.976,9.747,9.747,0,0,1-1.664-3.088,63.606,63.606,0,0,0-7.74-13.892c-11.142-.929-22.157-5.547-31.955-10.932s-18.974-11.833-28.645-17.443a41.08,41.08,0,0,0-5.227-2.67c-3.026-1.213-6.423-1.842-9.291-3.269-.193-.095-.386-.2-.575-.3a11.858,11.858,0,0,1-1.833-1.231,9.749,9.749,0,0,1-.878-.807,19.189,19.189,0,0,1-3.355-5.613c-1.54-3.406-2.088-7.514-3.625-10.92a10.564,10.564,0,0,1,2.358-1.664h0c.125-.065.249-.128.377-.187a11.254,11.254,0,0,1,1.89-.691q.552-.147,1.112-.24a.241.241,0,0,0,.045-.009,10.9,10.9,0,0,1,5.177.409,23.937,23.937,0,0,1,6.544,4.029,107.48,107.48,0,0,1,9.567,7.588c1.691,1.62,3.233,3.4,5.052,4.871a39.732,39.732,0,0,0,4.767,3.159q14.76,8.793,29.523,17.583c3.331,1.985,6.666,3.969,9.923,6.069,4.948,3.192,9.718,6.651,14.485,10.107q4.214,3.053,8.425,6.108a9.171,9.171,0,0,1,2.388,2.207,7.987,7.987,0,0,1,1.059,3.237A29.592,29.592,0,0,1,692.566,304.78Z" transform="translate(-107.013 -166.997)" fill="#fbbebe"/>
      <path id="Path_246" data-name="Path 246" d="M603.109,270.77c-1.181,5.3-6.532,8.5-9.33,13.148-3.477,5.773-2.059,12.483-.753,19.1l-7.158,6.167c-1.317,1.13-2.634,2.266-4.052,3.266a54.067,54.067,0,0,1-6.467,3.714l-6.337,3.26a30.285,30.285,0,0,1-6.2,2.628c-4.162,1.068-8.582.32-12.7-.917a5.741,5.741,0,0,1-1.388-.567,2.26,2.26,0,0,1-.659-.6,3.687,3.687,0,0,1-.418-2.394c.418-6.93,2.112-13.714,3.8-20.448a80.386,80.386,0,0,1,3.628-11.857,80.207,80.207,0,0,1,5.105-9.57,64.447,64.447,0,0,1,7.476-10.854,17.421,17.421,0,0,0,3.465-4.468c1.053-2.4.647-5.159.86-7.775a16.168,16.168,0,0,1,1.54-5.663v0a16.136,16.136,0,0,1,1.643-2.717l.863,2.008q.285.659.564,1.314.365.846.724,1.685,1.037,2.412,2.071,4.821a20.352,20.352,0,0,0,3.145,5.6,6.127,6.127,0,0,0,10.487-.8,20.048,20.048,0,0,0,2.142-5.669,18.117,18.117,0,0,0,.237-7.387c-.715-4.723-2.723-9.546-4.183-13.934a14.087,14.087,0,0,1-1.018-4.592,3.162,3.162,0,0,1,.053-.528c.009-.044.018-.092.027-.136a11.256,11.256,0,0,1,1.89-.691q.552-.147,1.112-.24,1.927,10.43,3.859,20.861c.03.163.062.326.092.492.184,1,.371,1.993.578,2.987.187.9.389,1.8.614,2.694l.009.027c.077.3.157.6.24.9l0,.009c.228.819.484,1.632.771,2.433C601.186,260.9,604.228,265.759,603.109,270.77Z" transform="translate(-103.517 -167.01)" fill="url(#linear-gradient)"/>
      <path id="Path_247" data-name="Path 247" d="M685.215,354.184a6.2,6.2,0,0,0,.575,2.963c1.1,2,3.724,2.457,6,2.644a177.6,177.6,0,0,0,39.847-1.214,4.606,4.606,0,0,0,2.028-.629c1.876-1.315.72-4.521-1.329-5.547s-4.479-.779-6.727-1.223a21.193,21.193,0,0,1-6.3-2.73q-6.837-3.928-13.475-8.191c-2.635-1.692-5.744-3.5-8.711-2.494C689.089,340.481,685.163,345.514,685.215,354.184Z" transform="translate(-114.592 -176.008)" fill="#36110d"/>
      <path id="Path_248" data-name="Path 248" d="M573.87,245.638v0c-.021.125-.042.246-.068.368-.033.2-.071.406-.11.608-.368,1.884-.819,3.759-1.338,5.622-1.424,5.147-3.331,10.211-5.224,15.2q-7.618,20.069-15.239,40.14c-1.282,3.37-2.56,6.743-4.017,10.045-.487,1.1-.988,2.21-1.486,3.331-1.786,4.014-3.5,8.158-4.07,12.43a25.88,25.88,0,0,0-.181,8.523c.57,2.8,2.269,5.536,4.93,6.571,1.3.507,3.159,1.187,2.8,2.536-.193.742-1.035,1.1-1.792,1.228a6.894,6.894,0,0,1-5.624-1.62c-1.421-1.261-2.513-3.222-4.4-3.432-1.308-.142-2.513.641-3.711,1.19-4.889,2.234-10.584.67-15.72-.917.4-2.08,2.492-3.45,4.565-3.865s4.219-.122,6.334-.178a3.308,3.308,0,0,0,1.925-.5,3.494,3.494,0,0,0,1.038-1.774,74.459,74.459,0,0,0,3.029-12.394c.682-4.4.967-8.867,1.94-13.213.757-3.391,1.925-6.675,2.928-10a211.849,211.849,0,0,0,4.77-20.813A73.578,73.578,0,0,0,546.5,275.9c.169-2.462.089-4.936.326-7.39a57.407,57.407,0,0,1,1.991-9.425q1.362-5.042,2.72-10.077c1.344-4.969,2.786-10.131,6.191-13.993a13.162,13.162,0,0,1,9.454-4.515,9.315,9.315,0,0,1,2.008.216c.11.027.219.053.329.083a8.143,8.143,0,0,1,2.05.848c1.05-.667,1.584-.433,2.281.6a6.575,6.575,0,0,1,.831,3.578,49.434,49.434,0,0,1-.807,9.819Z" transform="translate(-101.185 -167.399)" fill="#fbbebe"/>
      <path id="Path_249" data-name="Path 249" d="M579.274,249.541l-.044.044-.24.24-2.385,2.382-1.169-4.91-4.008-16.832a9.317,9.317,0,0,1,2.008.217,3.093,3.093,0,0,1,.139-.567l.19.65,1.359,4.622,2.572,8.775.424,1.445v0Z" transform="translate(-105.435 -167.368)" fill="url(#linear-gradient)"/>
      <path id="Path_250" data-name="Path 250" d="M593.1,191.8a11.862,11.862,0,0,1-3.489,8.387,11.608,11.608,0,0,1-1.282,1.109,11.811,11.811,0,0,1-7.1,2.38H566.99a11.87,11.87,0,0,1,0-23.739h14.232A11.906,11.906,0,0,1,593.1,191.8Z" transform="translate(-104.123 -163.33)" fill="#2f2e41"/>
      <circle id="Ellipse_170" data-name="Ellipse 170" cx="12.163" cy="12.163" r="12.163" transform="translate(490.155 5.043)" fill="#2f2e41"/>
      <path id="Path_251" data-name="Path 251" d="M610.571,167.361c-.149,0-.3.006-.445.011a12.16,12.16,0,0,1,0,24.3c.148.005.3.011.445.011a12.163,12.163,0,1,0,0-24.326Z" transform="translate(-108.55 -162.317)" opacity="0.1"/>
      <path id="Path_252" data-name="Path 252" d="M546.635,167.361c.149,0,.3.006.445.011a12.16,12.16,0,0,0,0,24.3c-.148.005-.3.011-.445.011a12.163,12.163,0,1,1,0-24.326Z" transform="translate(-102.461 -162.317)" opacity="0.1"/>
      <path id="Path_253" data-name="Path 253" d="M588.744,203.168a11.81,11.81,0,0,1-7.1,2.38H567.407a11.811,11.811,0,0,1-7.1-2.38Z" transform="translate(-104.54 -165.199)" opacity="0.1"/>
      <path id="Path_254" data-name="Path 254" d="M691.182,298.569s3.066,8.835,5.872,6.483L694.818,293.5Z" transform="translate(-115.073 -172.47)" fill="#fbbebe"/>
      <path id="Path_255" data-name="Path 255" d="M1095.837,588.7a19.621,19.621,0,1,0,2.613-37.631l.491,10.1-4.778-8.655a19.546,19.546,0,0,0-10.072,11.052,19.238,19.238,0,0,0-1.129,5.308A19.618,19.618,0,0,0,1095.837,588.7Z" transform="translate(-146.601 -193.164)" fill="url(#linear-gradient)"/>
      <path id="Path_256" data-name="Path 256" d="M1122.358,704.357c-1.687-8.589,5.622-16.2,12.841-21.152s15.654-9.812,18.118-18.211c3.54-12.071-7-23.126-15.212-32.659a118.142,118.142,0,0,1-15.578-23.152,31.876,31.876,0,0,1-3.726-10.527c-.647-5.351,1.072-10.675,2.8-15.779q8.654-25.5,18.5-50.579" transform="translate(-149.478 -191.688)" fill="none" stroke="#4b160f" stroke-miterlimit="10" stroke-width="1.025"/>
      <path id="Path_257" data-name="Path 257" d="M1096.708,585.872a19.621,19.621,0,1,0,2.613-37.631l.491,10.1-4.778-8.655a19.547,19.547,0,0,0-10.072,11.052,19.245,19.245,0,0,0-1.129,5.308A19.618,19.618,0,0,0,1096.708,585.872Z" transform="translate(-146.671 -192.937)" fill="none" stroke="#4b160f" stroke-miterlimit="10" stroke-width="1.025"/>
      <path id="Path_258" data-name="Path 258" d="M1119.964,527.373a19.6,19.6,0,0,1,14.123-12.442l1.615,9.6,3-10.083a19.619,19.619,0,1,1-18.733,12.925Z" transform="translate(-149.488 -190.252)" fill="url(#linear-gradient)"/>
      <path id="Path_259" data-name="Path 259" d="M1121.133,523.6a19.6,19.6,0,0,1,14.123-12.442l1.615,9.6,3-10.083a19.619,19.619,0,1,1-18.733,12.925Z" transform="translate(-149.582 -189.948)" fill="none" stroke="#4b160f" stroke-miterlimit="10" stroke-width="1.025"/>
      <path id="Path_260" data-name="Path 260" d="M1134.919,637.969a19.619,19.619,0,0,0,17.365-34.9l-2.3,7.749-1.632-9.714a.34.34,0,0,0-.05-.019,19.62,19.62,0,1,0-13.381,36.888Z" transform="translate(-149.745 -197.129)" fill="url(#linear-gradient)"/>
      <path id="Path_261" data-name="Path 261" d="M1135.945,634.15a19.619,19.619,0,0,0,17.365-34.9l-2.3,7.749-1.632-9.714a.349.349,0,0,0-.05-.019,19.62,19.62,0,1,0-13.382,36.888Z" transform="translate(-149.828 -196.822)" fill="none" stroke="#4b160f" stroke-miterlimit="10" stroke-width="1.025"/>
      <path id="Path_262" data-name="Path 262" d="M1113.818,674.724a19.611,19.611,0,1,0,3.781-15.365l8.742,13.158-11.944-6.984A19.435,19.435,0,0,0,1113.818,674.724Z" transform="translate(-149.064 -201.299)" fill="url(#linear-gradient)"/>
      <path id="Path_263" data-name="Path 263" d="M1114.689,671.9a19.611,19.611,0,1,0,3.781-15.365l8.742,13.158-11.944-6.984A19.433,19.433,0,0,0,1114.689,671.9Z" transform="translate(-149.134 -201.072)" fill="none" stroke="#4b160f" stroke-miterlimit="10" stroke-width="1.025"/>
      <path id="Path_264" data-name="Path 264" d="M73.14,641.823A12.892,12.892,0,1,0,74.857,617.1l.323,6.635-3.139-5.687a12.843,12.843,0,0,0-6.618,7.261,12.642,12.642,0,0,0-.742,3.487A12.889,12.889,0,0,0,73.14,641.823Z" transform="translate(-64.649 -198.49)" fill="url(#linear-gradient)"/>
      <path id="Path_265" data-name="Path 265" d="M90.563,717.811c-1.108-5.643,3.694-10.646,8.437-13.9s10.285-6.447,11.9-11.965c2.326-7.931-4.6-15.194-9.995-21.458a77.6,77.6,0,0,1-10.235-15.211,20.939,20.939,0,0,1-2.448-6.916c-.425-3.516.7-7.014,1.842-10.367q5.686-16.756,12.158-33.232" transform="translate(-66.539 -197.521)" fill="none" stroke="#4b160f" stroke-miterlimit="10" stroke-width="1.025"/>
      <path id="Path_266" data-name="Path 266" d="M73.717,639.966a12.892,12.892,0,1,0,1.717-24.724l.323,6.635-3.139-5.686A12.843,12.843,0,0,0,66,623.452a12.641,12.641,0,0,0-.742,3.487A12.889,12.889,0,0,0,73.717,639.966Z" transform="translate(-64.695 -198.341)" fill="none" stroke="#4b160f" stroke-miterlimit="10" stroke-width="1.025"/>
      <path id="Path_267" data-name="Path 267" d="M88.995,601.53a12.877,12.877,0,0,1,9.279-8.175l1.061,6.308,1.968-6.625a12.89,12.89,0,1,1-12.308,8.492Z" transform="translate(-66.546 -196.577)" fill="url(#linear-gradient)"/>
      <path id="Path_268" data-name="Path 268" d="M89.765,599.053a12.877,12.877,0,0,1,9.279-8.175l1.061,6.308,1.968-6.625a12.89,12.89,0,1,1-12.308,8.492Z" transform="translate(-66.608 -196.377)" fill="none" stroke="#4b160f" stroke-miterlimit="10" stroke-width="1.025"/>
      <path id="Path_269" data-name="Path 269" d="M98.823,674.194a12.89,12.89,0,0,0,11.409-22.932l-1.512,5.091-1.072-6.382a.218.218,0,0,0-.033-.012,12.891,12.891,0,1,0-8.792,24.236Z" transform="translate(-66.715 -201.095)" fill="url(#linear-gradient)"/>
      <path id="Path_270" data-name="Path 270" d="M99.49,671.685A12.89,12.89,0,0,0,110.9,648.753l-1.512,5.091-1.072-6.382a.223.223,0,0,0-.033-.012,12.891,12.891,0,1,0-8.792,24.236Z" transform="translate(-66.769 -200.893)" fill="none" stroke="#4b160f" stroke-miterlimit="10" stroke-width="1.025"/>
      <path id="Path_271" data-name="Path 271" d="M84.954,698.343a12.885,12.885,0,1,0,2.484-10.095l5.744,8.645L85.334,692.3A12.77,12.77,0,0,0,84.954,698.343Z" transform="translate(-66.267 -203.835)" fill="url(#linear-gradient)"/>
      <path id="Path_272" data-name="Path 272" d="M85.531,696.485a12.884,12.884,0,1,0,2.484-10.095l5.744,8.645-7.848-4.588A12.769,12.769,0,0,0,85.531,696.485Z" transform="translate(-66.313 -203.686)" fill="none" stroke="#4b160f" stroke-miterlimit="10" stroke-width="1.025"/>
      <ellipse id="Ellipse_171" data-name="Ellipse 171" cx="16.027" cy="20.741" rx="16.027" ry="20.741" transform="translate(437.391 280.11)" fill="#4b160f"/>
      <ellipse id="Ellipse_172" data-name="Ellipse 172" cx="16.027" cy="20.741" rx="16.027" ry="20.741" transform="translate(524.596 280.581)" fill="#4b160f"/>
      <path id="Path_273" data-name="Path 273" d="M634.146,554.729c0,9.371-13.086,16.97-29.226,16.97s-29.226-7.6-29.226-16.97c0-8.117,9.814-14.905,22.928-16.565a47.279,47.279,0,0,1,6.3-.405,47.8,47.8,0,0,1,10.493,1.131C626.368,541.332,634.146,547.508,634.146,554.729Z" transform="translate(-105.779 -192.128)" fill="#4b160f"/>
      <ellipse id="Ellipse_173" data-name="Ellipse 173" cx="16.027" cy="20.741" rx="16.027" ry="20.741" transform="translate(441.162 275.396)" fill="none" stroke="#f6c34e" stroke-miterlimit="10" stroke-width="1.025"/>
      <ellipse id="Ellipse_174" data-name="Ellipse 174" cx="16.027" cy="20.741" rx="16.027" ry="20.741" transform="translate(528.367 275.868)" fill="none" stroke="#f6c34e" stroke-miterlimit="10" stroke-width="1.025"/>
      <ellipse id="Ellipse_175" data-name="Ellipse 175" cx="29.226" cy="16.97" rx="29.226" ry="16.97" transform="translate(473.687 340.918)" fill="none" stroke="#f6c34e" stroke-miterlimit="10" stroke-width="1.025"/>
      <path id="Path_274" data-name="Path 274" d="M617.7,540.264a4.654,4.654,0,0,1-1.244,3.2,4.09,4.09,0,0,1-3,1.327h-9.428a4.4,4.4,0,0,1-4.242-4.525,4.624,4.624,0,0,1,.773-2.584,44.348,44.348,0,0,1,6.3-.432,44.94,44.94,0,0,1,10.493,1.207A4.775,4.775,0,0,1,617.7,540.264Z" transform="translate(-107.718 -192.087)" fill="#fff"/>
      <circle id="Ellipse_176" data-name="Ellipse 176" cx="4.714" cy="4.714" r="4.714" transform="translate(452.475 285.767)" fill="#fff"/>
      <circle id="Ellipse_177" data-name="Ellipse 177" cx="4.714" cy="4.714" r="4.714" transform="translate(540.152 285.767)" fill="#fff"/>
      <circle id="Ellipse_178" data-name="Ellipse 178" cx="4.714" cy="4.714" r="4.714" transform="translate(544.866 330.077)" fill="#4b160f" opacity="0.3"/>
      <circle id="Ellipse_179" data-name="Ellipse 179" cx="4.714" cy="4.714" r="4.714" transform="translate(429.849 330.077)" fill="#4b160f" opacity="0.3"/>
    </g>
  </g>
</svg>
