<svg xmlns="http://www.w3.org/2000/svg" width="68.503" height="26.917" viewBox="0 0 68.503 26.917">
  <g id="amex" transform="translate(0.001 -0.2)">
    <path id="Path" d="M1.812,1.256,2.583,3.14H0L.785,1.256,1.3,0l.514,1.256Z" transform="translate(3.397 3.711)" fill="#296db6"/>
    <path id="Shape" d="M44.184,11.7a5.679,5.679,0,0,1-3.311-1.058V11.7H34.009L32.354,9.619V11.7H6.18l-.656-1.74h-1.6L3.254,11.7H0V9.961H2.17l.685-1.685H6.608L7.294,9.9h2.2L6.038,1.855H3.5L0,9.958,0,5.423,2.285,0H6.937L8.278,3V0h5.709l.857,2.569L15.7.057H40.873V1.228A5.568,5.568,0,0,1,44.282.054l.16,0h7.62l1.427,3v-3H57.97L59.5,2.426V.057H64.62V11.7H59.8L58.369,9.448V11.7H51.377l-.7-1.74h-1.6l-.656,1.74h-4.1ZM55.03,1.855V9.962h1.912V4.538l.514.885L60.44,9.9h2.282L62.794,1.8h-2V7.05l-.542-.913L57.4,1.855Zm-6.378,0L45.2,9.962h2.083l.685-1.685h3.811L52.461,9.9h2.2L51.22,1.855Zm-4.669-.009a3.64,3.64,0,0,0-3.623,3.977v.114A3.568,3.568,0,0,0,43.9,9.909c.065,0,.131,0,.2-.005h.114L45,8.192h-.613l-.1,0A2,2,0,0,1,42.3,5.936V5.822a2,2,0,0,1,1.984-2.228l.1,0H46.51V1.855h-2.27C44.155,1.849,44.069,1.845,43.983,1.845Zm-6.72.009V9.9h1.955V1.855ZM31.1,7.05h.885l2.4,2.854h2.483L34.18,6.936a2.486,2.486,0,0,0,2.2-2.541,2.527,2.527,0,0,0-2.854-2.541H29.115V9.9H31.1V7.051ZM17.966,3.405h0V9.9h1.884V1.855H16.7L15.1,6.508l-.257.885-.257-.885L13.016,1.855H9.863V9.9h1.869V3.4l.4,1.228L13.959,9.9H15.7l1.9-5.28Zm3.442-1.551V9.847H27.83V8.134H23.305V6.707h4.411V5H23.305V3.568H27.83V1.855Zm29.826,4.8H48.7l.74-1.884L49.95,3.51l.486,1.2.284.691-.284-.691-.486-1.2.514,1.256.294.719h0l.453,1.1h0l-.843-1.823.87,1.882ZM33.48,5.347a.884.884,0,0,1-.127-.009H31.1V3.568h2.255a.9.9,0,0,1,1,.88v.029a.87.87,0,0,1-.871.87Zm.578-.276a.869.869,0,0,1-.571.219A.868.868,0,0,0,34.058,5.071Z" transform="translate(-0.001 0.2)" fill="#296db6"/>
    <path id="Shape-2" data-name="Shape" d="M29.256,11.647H24.361V8.706a7.031,7.031,0,0,1-2.079.314h-.861v2.627H14.214L13.015,9.9l-1.227,1.742H0V0H11.816l1.2,1.712L14.243,0H55.829V1.8H51.647a2.483,2.483,0,0,0-2.768,2.541A2.24,2.24,0,0,0,51.39,6.707h1.841a.729.729,0,0,1,.749.31.727.727,0,0,1-.749,1.117H49.106V9.847h4.1c.077.007.155.011.233.011A2.536,2.536,0,0,0,55.8,8.22v2.711a4.777,4.777,0,0,1-2.516.715H30.912L29.256,9.561v2.085ZM13.015,7.279h0l1.94,2.567,2.456.057L14.157,5.852l3.2-4.054H14.985l-1.97,2.541L11.06,1.826H8.634l3.239,4.025-3.139,4H11l2.01-2.567Zm28.656.855V9.847h4.168c.066.005.133.008.2.008a2.5,2.5,0,0,0,2.5-2.577,2.211,2.211,0,0,0-2.512-2.312H44.155a.728.728,0,1,1,0-1.427h3.468l.771-1.713H44.212a2.484,2.484,0,0,0-2.768,2.512,2.24,2.24,0,0,0,2.511,2.368h1.884a.728.728,0,1,1,0,1.427ZM27.928,6.992h.885l2.4,2.855h2.483L31,6.879A2.558,2.558,0,0,0,30.4,1.8H26.031V9.847h1.9V6.994ZM17.753,1.8V9.847h1.912V7.193h2.469a2.64,2.64,0,0,0,2.912-2.711A2.583,2.583,0,0,0,22.192,1.8Zm16.4,0V9.761h6.493V8.049H36.12V6.622h4.411V4.937H36.12V3.51H40.6L40.644,1.8Zm-32.3,0V9.761H8.32V8.049H3.8V6.622H8.234V4.937H3.8V3.51H8.32V1.8Zm53.9,4.475a2.311,2.311,0,0,0-2.337-1.336h-1.87a.728.728,0,1,1,0-1.427h3.512l.7-1.656V6.273ZM22.02,5.481H19.708V3.51H22.02a.985.985,0,0,1,0,1.97Zm8.336-.191a.873.873,0,0,1-.13-.01H27.972V3.51h2.254a.9.9,0,0,1,.112-.007.885.885,0,0,1,.887.892v.024a.871.871,0,0,1-.87.871Z" transform="translate(12.673 15.47)" fill="#296db6"/>
  </g>
</svg>
