<svg xmlns="http://www.w3.org/2000/svg" width="19.258" height="24" viewBox="0 0 19.258 24">
  <path id="Fill_929" data-name="Fill 929" d="M16.571,24H2.687A2.576,2.576,0,0,1,.679,22.993,3.237,3.237,0,0,1,.018,20.65l1.37-13A2.812,2.812,0,0,1,4.056,5H5.15A4.767,4.767,0,0,1,9.629,0a4.767,4.767,0,0,1,4.479,5H15.2A2.814,2.814,0,0,1,17.87,7.65l1.369,13a3.237,3.237,0,0,1-.661,2.343A2.576,2.576,0,0,1,16.571,24ZM4.056,7a.937.937,0,0,0-.889.881l-1.37,13a1.086,1.086,0,0,0,.221.785A.858.858,0,0,0,2.687,22H16.571a.858.858,0,0,0,.669-.334,1.086,1.086,0,0,0,.221-.785l-1.369-13A.938.938,0,0,0,15.2,7H14.108V8a.9.9,0,1,1-1.792,0V7H6.942V8a.953.953,0,0,1-.9,1,.953.953,0,0,1-.9-1V7ZM9.629,2A2.86,2.86,0,0,0,6.942,5h5.374a3.169,3.169,0,0,0-.788-2.12A2.535,2.535,0,0,0,9.629,2Z" transform="translate(0)" fill="#4b160f"/>
</svg>
