<svg xmlns="http://www.w3.org/2000/svg" width="29.186" height="26.769" viewBox="0 0 29.186 26.769">
  <path id="Path_110" data-name="Path 110" d="M14.054,43.5a1.2,1.2,0,0,0,.617.186,1.089,1.089,0,0,0,.617-.186c.5-.334,12.355-8.094,13.7-15.984.692-4.084-.579-6.609-1.757-8a7.3,7.3,0,0,0-5.477-2.6,5.344,5.344,0,0,0-1.907.334,13.9,13.9,0,0,0-5.813,4.214,11.861,11.861,0,0,0-4.916-3.806,6.538,6.538,0,0,0-2.112-.334A6.721,6.721,0,0,0,2.035,19.48C.932,20.687-.32,22.989.072,27,.857,34.888,13.512,43.149,14.054,43.5ZM3.7,20.965a4.449,4.449,0,0,1,3.308-1.429,4.234,4.234,0,0,1,1.383.223c2.6.873,4.673,4.158,4.71,4.177a1.089,1.089,0,0,0,.972.52,1.133,1.133,0,0,0,.953-.557,11.823,11.823,0,0,1,5.626-4.585,3.429,3.429,0,0,1,1.1-.186,5.069,5.069,0,0,1,3.757,1.819c1.271,1.485,1.7,3.639,1.252,6.2-.486,2.822-2.8,6.2-6.71,9.783a53.329,53.329,0,0,1-5.383,4.288,56.037,56.037,0,0,1-5.7-4.511C4.895,32.994,2.6,29.56,2.315,26.775,2.072,24.232,2.54,22.227,3.7,20.965Z" transform="translate(0.001 -16.918)" fill="#4b160f"/>
</svg>
