<svg xmlns="http://www.w3.org/2000/svg" xmlns:xlink="http://www.w3.org/1999/xlink" width="25" height="25" viewBox="0 0 25 25">
  <defs>
    <linearGradient id="linear-gradient" x1="0.5" x2="0.5" y2="1" gradientUnits="objectBoundingBox">
      <stop offset="0" stop-color="#fdda76"/>
      <stop offset="0.176" stop-color="#fdd365"/>
      <stop offset="0.377" stop-color="#f6c34e"/>
      <stop offset="0.598" stop-color="#dda534"/>
      <stop offset="0.745" stop-color="#e4ad39"/>
      <stop offset="0.87" stop-color="#fdcb58"/>
      <stop offset="1" stop-color="#fdff8f"/>
    </linearGradient>
  </defs>
  <path id="Fill_955" data-name="Fill 955" d="M21.794,25c-.108,0-.218-.005-.327-.016A23.968,23.968,0,0,1,.016,3.532a3.113,3.113,0,0,1,.8-2.426A3.388,3.388,0,0,1,3.321,0H7.381a3.418,3.418,0,0,1,3.247,2.34l1.317,3.948a3.407,3.407,0,0,1-.827,3.5l-.635.635a13.5,13.5,0,0,0,4.1,4.08l.623-.625a3.426,3.426,0,0,1,3.5-.827l3.948,1.317A3.418,3.418,0,0,1,25,17.619v4.061A3.269,3.269,0,0,1,21.794,25ZM3.321,2.282a1.058,1.058,0,0,0-.8.338.9.9,0,0,0-.234.687A21.7,21.7,0,0,0,21.694,22.713a.828.828,0,0,0,.084,0,.914.914,0,0,0,.649-.284,1.073,1.073,0,0,0,.291-.754V17.619a1.141,1.141,0,0,0-.781-1.083L17.989,15.22a1.141,1.141,0,0,0-1.167.275l-.631.633a2.291,2.291,0,0,1-1.609.667,2.226,2.226,0,0,1-1.263-.392,15.777,15.777,0,0,1-4.757-4.741,2.261,2.261,0,0,1,.3-2.839L9.5,8.178a1.131,1.131,0,0,0,.274-1.167L8.463,3.063a1.137,1.137,0,0,0-1.081-.781ZM23.859,9.128a1.142,1.142,0,0,1-1.141-1.141,5.712,5.712,0,0,0-5.706-5.706,1.141,1.141,0,1,1,0-2.282A8,8,0,0,1,25,7.987,1.142,1.142,0,0,1,23.859,9.128Zm-4.565,0a1.142,1.142,0,0,1-1.141-1.141,1.142,1.142,0,0,0-1.141-1.141,1.142,1.142,0,0,1,0-2.283,3.427,3.427,0,0,1,3.423,3.424A1.142,1.142,0,0,1,19.294,9.128Z" transform="translate(0)" fill="url(#linear-gradient)"/>
</svg>
