<svg xmlns="http://www.w3.org/2000/svg" width="60" height="14" viewBox="0 0 60 14">
  <g id="Group_1003" data-name="Group 1003" transform="translate(-633 -9009.289)">
    <text id="Smartköp" transform="translate(650 9020.289)" fill="#4b160f" font-size="10" font-family="SegoeUI, Segoe UI"><tspan x="0" y="0">Smartköp</tspan></text>
    <path id="Path_176" data-name="Path 176" d="M11.256,40.873H10.227v.055a1.871,1.871,0,0,1-3.743.007,1.581,1.581,0,0,1,.021-.269H4.544c.007.069.014.145.021.221a1.837,1.837,0,0,1-.511,1.333,1.873,1.873,0,0,1-1.305.58H2.7A1.857,1.857,0,0,1,.829,40.984a2.033,2.033,0,0,1,.021-.318H.442A.446.446,0,0,1,0,40.245V33.153a.452.452,0,0,1,.442-.428H7.8a.423.423,0,0,1,.414.428v.656l1.94-.048a.412.412,0,0,1,.394.256l1.084,2.6a.41.41,0,0,1,.035.159v3.681A.416.416,0,0,1,11.256,40.873Zm-.414-.829V37.7H8.287a.235.235,0,0,1-.069-.007v1.374a1.02,1.02,0,0,1,.145-.007,1.867,1.867,0,0,1,1.643.981h.836ZM8.362,41.971A1.043,1.043,0,1,0,7.32,40.929,1.046,1.046,0,0,0,8.362,41.971Zm-5.635,0a1.027,1.027,0,0,0,.725-.325,1.06,1.06,0,0,0,.283-.746,1.036,1.036,0,0,0-1.043-1.015H2.666a1.043,1.043,0,0,0,.062,2.085Zm-1.9-8.418v6.284H1.1a.284.284,0,0,1,.076.007,2.246,2.246,0,0,1,.159-.2,1.845,1.845,0,0,1,1.305-.58h.048a1.828,1.828,0,0,1,1.519.773H6.85a1.871,1.871,0,0,1,.539-.5v-5.78ZM9.9,34.6l-1.678.035v2.244a.235.235,0,0,1,.069-.007h2.555v-.007Z" transform="translate(633 8978.193)" fill="#4b160f"/>
  </g>
</svg>
