<svg xmlns="http://www.w3.org/2000/svg" width="115" height="81.399" viewBox="0 0 115 81.399">
  <g id="Group_904" data-name="Group 904" transform="translate(-560.482 -85.767)">
    <g id="Group_902" data-name="Group 902" transform="translate(560.482 134.165)">
      <g id="Group_901" data-name="Group 901" transform="translate(0 0)">
        <text id="Smartköp" transform="translate(0 26)" fill="#4b160f" font-size="27" font-family="SegoeUI, Segoe UI"><tspan x="0" y="0">Smartköp</tspan></text>
      </g>
    </g>
    <g id="Group_903" data-name="Group 903" transform="translate(611.844 85.767)">
      <path id="Path_414" data-name="Path 414" d="M422.621,90.615h-1.742c-10.333,0-20.666-.014-31,.02-1.073,0-1.546-.192-1.725-1.405-.762-5.14-1.671-10.257-2.528-15.382-.222-1.331-.671-1.717-2.044-1.733-1.1-.013-2.193.025-3.288-.012-1.575-.053-2.456-.9-2.42-2.263.036-1.293.933-2.051,2.461-2.067.861-.009,1.722,0,2.583,0,4.12,0,5.9,1.348,7.039,5.454h39.615c1.8,0,2.155.43,1.766,2.2-.251,1.144-.526,2.283-.812,3.42-.369,1.462-1.327,2.2-2.561,2.008s-1.907-1.181-1.84-2.694a3.547,3.547,0,0,0-.037-.417H390.717c.188,1.266.357,2.481.551,3.692s.5,2.38.587,3.583c.075,1.008.532,1.169,1.423,1.168q15.557-.04,31.116-.017h3.735c-.06.423-.08.725-.148,1.015q-1.672,7.19-3.354,14.378c-.41,1.761-.705,2.015-2.543,2.017q-9.159.011-18.317,0c-2.737-.008-5.486.064-8.209-.159a6.418,6.418,0,0,1-5.441-4.1,2.2,2.2,0,0,1,.9-3.034,2.155,2.155,0,0,1,3.022,1.132,3.065,3.065,0,0,0,3.08,1.851q11.154-.077,22.309,0c.908,0,1.3-.233,1.482-1.153C421.4,95.669,422.01,93.254,422.621,90.615Z" transform="translate(-377.874 -67.767)" fill="#4b160f"/>
      <path id="Path_415" data-name="Path 415" d="M419.175,88.985c4.187,0,8.375-.014,12.562.007a2.109,2.109,0,0,1,2.249,2.055,2.176,2.176,0,0,1-1.959,2.246,7.413,7.413,0,0,1-1.17.051q-6.046.005-12.093,0c-3.835,0-7.671.016-11.505-.017a4.157,4.157,0,0,1-1.8-.379,1.948,1.948,0,0,1-.937-2.422,1.978,1.978,0,0,1,2.089-1.544Z" transform="translate(-389.169 -76.792)" fill="#4b160f"/>
      <path id="Path_416" data-name="Path 416" d="M438.4,131.042a5.985,5.985,0,0,1,6.076,6.082,6.083,6.083,0,1,1-6.076-6.082Zm1.65,6.017a1.642,1.642,0,0,0-1.624-1.643,1.619,1.619,0,0,0-1.715,1.657,1.687,1.687,0,0,0,1.612,1.672A1.709,1.709,0,0,0,440.046,137.059Z" transform="translate(-401.031 -94.686)" fill="#4b160f"/>
      <path id="Path_417" data-name="Path 417" d="M406.624,131.044a6.031,6.031,0,0,1-.009,12.061,6.031,6.031,0,1,1,.009-12.061Zm-.088,7.694a1.71,1.71,0,0,0,1.66-1.765,1.512,1.512,0,0,0-1.573-1.552,1.673,1.673,0,0,0-1.743,1.667A1.708,1.708,0,0,0,406.535,138.738Z" transform="translate(-387.506 -94.687)" fill="#4b160f"/>
      <path id="Path_418" data-name="Path 418" d="M421.43,115.51c-2.971,0-5.943.005-8.914,0-1.613,0-2.64-.86-2.646-2.18s1.023-2.186,2.633-2.187q9.031-.007,18.063,0c1.631,0,2.578.843,2.548,2.232-.029,1.334-.957,2.129-2.536,2.134C427.529,115.516,424.48,115.51,421.43,115.51Z" transform="translate(-391.486 -86.218)" fill="#4b160f"/>
    </g>
  </g>
</svg>
