<svg xmlns="http://www.w3.org/2000/svg" width="49.345" height="32.633" viewBox="0 0 49.345 32.633">
  <g id="mastercard" transform="translate(-0.65 -0.2)">
    <g id="Group" transform="translate(0.65 0.2)" opacity="0">
      <rect id="Rectangle" width="49.345" height="32.633" fill="#fff"/>
    </g>
    <rect id="Rectangle-2" data-name="Rectangle" width="13.015" height="21.262" transform="translate(18.815 5.885)" fill="#f26122"/>
    <path id="Path" d="M16.786,13.525a13.487,13.487,0,0,1,5.1-10.631,13.525,13.525,0,1,0,0,21.262A13.487,13.487,0,0,1,16.786,13.525Z" transform="translate(3.431 2.991)" fill="#ea1d25"/>
    <path id="Shape" d="M.638.524H.548V0H.676L.841.369.995,0h.127V.522H1.033v-.4L.893.472H.79L.638.127v.4Zm-.383,0H.179V.089H0V0H.446V.09H.255V.522Z" transform="translate(45.635 24.369)" fill="#f69e1e"/>
    <path id="Path-2" data-name="Path" d="M21.874,13.516A13.525,13.525,0,0,1,0,24.147,13.525,13.525,0,0,0,2.269,5.167,13.257,13.257,0,0,0,0,2.885,13.525,13.525,0,0,1,21.874,13.516Z" transform="translate(25.316 3)" fill="#f69e1e"/>
  </g>
</svg>
