<svg xmlns="http://www.w3.org/2000/svg" width="83.872" height="14.063" viewBox="0 0 83.872 14.063">
  <path id="Path_494" data-name="Path 494" d="M6.84-2.985c-.225,2.13-3.39,1.5-4.62.66A.884.884,0,0,0,.885-2.22,1.11,1.11,0,0,0,1.1-.75C3.165.96,8.685.87,8.79-2.94,8.9-6.93,2.37-5.52,2.775-7.98,3.09-9.54,5.61-9.21,6.72-8.505a.878.878,0,1,0,.96-1.47C5.61-11.565,1.215-11.04.87-8.13.405-3.87,6.645-5.2,6.84-2.985Zm7.905-.45a.986.986,0,0,0,1.71,0l2.49-3.15v5.55A.943.943,0,0,0,19.905,0a.932.932,0,0,0,.9-1.035V-9.48a.973.973,0,0,0-1.71-.66l-3.42,4.62-3.3-4.455a1.236,1.236,0,0,0-.945-.54,1,1,0,0,0-.9,1.035v8.445A.932.932,0,0,0,11.43,0a1.036,1.036,0,0,0,1.08-1.035v-5.55ZM24.015-.51l.645-1.32h5.535l.66,1.32c.54,1.17,2.355.24,1.74-.93l-4.23-8.415a1.016,1.016,0,0,0-1.86,0L22.2-1.44A1.058,1.058,0,0,0,22.68,0,1.126,1.126,0,0,0,24.015-.51Zm1.575-3.3,1.845-3.705L29.13-3.81Zm10.365.12H38.31L40.575-.45a1.012,1.012,0,1,0,1.68-1.125L40.26-4.005a3.332,3.332,0,0,0-1.41-6.375H34.86a.9.9,0,0,0-.9.915v8.52a1,1,0,0,0,2-.03Zm0-4.875H38.85c2.07,0,1.95,3.15,0,3.15H35.955ZM46.92-.93a.99.99,0,0,0,1.98,0V-8.505h2.49a.961.961,0,1,0,0-1.92h-7.1a.96.96,0,1,0,0,1.92H46.92Zm13.65.585c.6.96,2.52.06,1.62-1.185L58.68-5.775c.96-1.05,1.995-1.98,2.88-3.03a.865.865,0,0,0,0-1.335.938.938,0,0,0-1.425,0L55.8-5.67V-9.48a.99.99,0,0,0-1.98,0V-.915a.991.991,0,0,0,1.98,0v-2.1L57.225-4.59ZM74.535-5.25a5.408,5.408,0,0,0-5.37-5.5,5.382,5.382,0,0,0-5.655,5.5A5.236,5.236,0,0,0,69.165.15,5.232,5.232,0,0,0,74.535-5.25Zm-1.965,0A3.464,3.464,0,0,1,69-1.7,3.442,3.442,0,0,1,65.49-5.25,3.433,3.433,0,0,1,69-8.805,3.455,3.455,0,0,1,72.57-5.25Zm-6.42-7.2a1.089,1.089,0,0,0,2.175,0v-.285a1.09,1.09,0,0,0-2.175,0Zm3.675,0a1.089,1.089,0,0,0,2.175,0v-.285a1.09,1.09,0,0,0-2.175,0ZM76.38-1.035A1.013,1.013,0,0,0,77.4,0a.943.943,0,0,0,.96-1.035v-1.98h2.505a3.552,3.552,0,0,0,3.7-3.69,3.576,3.576,0,0,0-3.7-3.81H77.4A1.032,1.032,0,0,0,76.38-9.48Zm4.485-7.59a1.862,1.862,0,0,1,1.8,1.92,1.848,1.848,0,0,1-1.8,1.815H78.36V-8.625Z" transform="translate(-0.698 13.747)" fill="#4b160f"/>
</svg>
