<svg xmlns="http://www.w3.org/2000/svg" width="54.633" height="16.77" viewBox="0 0 54.633 16.77">
  <g id="Payment_Option_1" data-name="Payment Option 1" transform="translate(-1150 -361)">
    <path id="Path_229" data-name="Path 229" d="M61.9,17.141,64.669.9h4.418L66.318,17.141Z" transform="translate(1107.359 360.38)" fill="#2a2a6c"/>
    <path id="Path_230" data-name="Path 230" d="M98.285.684A11.017,11.017,0,0,0,94.334,0c-4.387,0-7.467,2.209-7.467,5.351-.031,2.333,2.209,3.64,3.889,4.418,1.711.809,2.3,1.307,2.3,2.022,0,1.089-1.369,1.587-2.645,1.587a9.516,9.516,0,0,1-4.169-.84l-.622-.28L85,15.9a13.98,13.98,0,0,0,4.947.871c4.667,0,7.685-2.178,7.716-5.538.031-1.836-1.151-3.267-3.7-4.418-1.556-.747-2.489-1.244-2.489-2.022,0-.684.809-1.4,2.52-1.4a7.662,7.662,0,0,1,3.3.622l.4.187L98.285.684" transform="translate(1091.445 361)" fill="#2a2a6c"/>
    <path id="Path_231" data-name="Path 231" d="M136.92,1H133.5a2.217,2.217,0,0,0-2.333,1.338L124.6,17.209h4.636s.747-1.991.933-2.427h5.662c.124.56.529,2.427.529,2.427h4.107L136.92,1m-5.445,10.454c.373-.933,1.773-4.542,1.773-4.542-.031.031.373-.933.591-1.556l.311,1.4s.84,3.889,1.027,4.7Z" transform="translate(1064.166 360.311)" fill="#2a2a6c"/>
    <path id="Path_232" data-name="Path 232" d="M25.82.9,21.465,11.976,21,9.736a12.556,12.556,0,0,0-6.1-6.814l3.951,14.218h4.7L30.518.9h-4.7" transform="translate(1139.736 360.38)" fill="#2a2a6c"/>
    <path id="Path_233" data-name="Path 233" d="M7.187.9H.062L0,1.242c5.569,1.338,9.24,4.6,10.765,8.494L9.209,2.269A1.872,1.872,0,0,0,7.187.9" transform="translate(1150 360.38)" fill="#fcb000"/>
  </g>
</svg>
