<svg xmlns="http://www.w3.org/2000/svg" width="79.84" height="19.5" viewBox="0 0 79.84 19.5">
  <g id="Payment_Option_3" data-name="Payment Option 3" transform="translate(893 -11625)">
    <path id="XMLID_15_" d="M134.605,28.242c-.235,1.592-1.447,1.592-2.623,1.592h-.669l.47-2.967a.368.368,0,0,1,.362-.308h.308c.8,0,1.556,0,1.936.452A1.448,1.448,0,0,1,134.605,28.242ZM134.1,24.1h-4.414a.622.622,0,0,0-.615.525l-1.791,11.324a.366.366,0,0,0,.362.416h2.116a.622.622,0,0,0,.615-.525l.488-3.057a.617.617,0,0,1,.6-.525h1.393c2.912,0,4.595-1.411,5.029-4.2a3.472,3.472,0,0,0-.561-2.858A4.239,4.239,0,0,0,134.1,24.1Z" transform="translate(-997.244 11605.26)" fill="#253d80"/>
    <path id="XMLID_12_" d="M189.8,49.905a2.353,2.353,0,0,1-2.388,2.026,1.8,1.8,0,0,1-1.429-.579,1.777,1.777,0,0,1-.326-1.483,2.379,2.379,0,0,1,2.37-2.044,1.787,1.787,0,0,1,1.411.579A1.861,1.861,0,0,1,189.8,49.905Zm2.949-4.106h-2.116a.355.355,0,0,0-.362.308l-.09.6-.145-.217a2.993,2.993,0,0,0-2.5-.886,4.861,4.861,0,0,0-4.721,4.251,4.026,4.026,0,0,0,.8,3.256,3.317,3.317,0,0,0,2.659,1.067,4.062,4.062,0,0,0,2.93-1.212l-.09.579a.382.382,0,0,0,.362.434h1.9a.622.622,0,0,0,.615-.525l1.14-7.236A.391.391,0,0,0,192.753,45.8Z" transform="translate(-1042.693 11587.648)" fill="#253d80"/>
    <path id="XMLID_11_" d="M255.616,46.7H253.5a.626.626,0,0,0-.507.271l-2.93,4.305-1.248-4.142a.625.625,0,0,0-.6-.434h-2.08a.364.364,0,0,0-.344.488l2.334,6.874-2.207,3.111a.363.363,0,0,0,.308.579h2.116a.582.582,0,0,0,.507-.271l7.073-10.2A.368.368,0,0,0,255.616,46.7Z" transform="translate(-1094.304 11586.748)" fill="#253d80"/>
    <path id="XMLID_8_" d="M308.787,28.242c-.235,1.592-1.447,1.592-2.623,1.592h-.669l.47-2.967a.368.368,0,0,1,.362-.308h.307c.8,0,1.556,0,1.936.452A1.448,1.448,0,0,1,308.787,28.242Zm-.507-4.142h-4.414a.59.59,0,0,0-.6.525l-1.791,11.324a.366.366,0,0,0,.362.416H304.1a.4.4,0,0,0,.416-.362l.507-3.2a.617.617,0,0,1,.6-.525h1.393c2.912,0,4.595-1.411,5.029-4.2a3.472,3.472,0,0,0-.561-2.858A4.052,4.052,0,0,0,308.281,24.1Z" transform="translate(-1139.932 11605.26)" fill="#189bd7"/>
    <path id="XMLID_5_" d="M363.9,49.905a2.353,2.353,0,0,1-2.388,2.026,1.8,1.8,0,0,1-1.429-.579,1.777,1.777,0,0,1-.326-1.483,2.376,2.376,0,0,1,2.37-2.026,1.681,1.681,0,0,1,1.773,2.062Zm2.949-4.106h-2.116a.354.354,0,0,0-.362.308l-.09.6-.145-.217a2.993,2.993,0,0,0-2.5-.886,4.861,4.861,0,0,0-4.721,4.251,4.026,4.026,0,0,0,.8,3.256,3.317,3.317,0,0,0,2.659,1.067,4.062,4.062,0,0,0,2.93-1.212l-.09.579a.382.382,0,0,0,.362.434h1.9a.59.59,0,0,0,.6-.525l1.14-7.236A.357.357,0,0,0,366.853,45.8Z" transform="translate(-1185.299 11587.648)" fill="#189bd7"/>
    <path id="XMLID_4_" d="M417.688,24.326l-1.809,11.541a.366.366,0,0,0,.362.416h1.827a.621.621,0,0,0,.615-.525l1.791-11.324a.382.382,0,0,0-.362-.434h-2.044A.39.39,0,0,0,417.688,24.326Z" transform="translate(-1233.638 11605.342)" fill="#189bd7"/>
    <path id="XMLID_3_" d="M33.052,27.4c-.018.109-.036.235-.054.362-.814,4.088-3.546,5.5-7.037,5.5H24.189a.857.857,0,0,0-.85.724l-.9,5.77-.253,1.628a.457.457,0,0,0,.452.525h3.129a.743.743,0,0,0,.742-.633l.036-.163.6-3.763.036-.2a.757.757,0,0,1,.742-.633h.47c3.057,0,5.445-1.248,6.15-4.83a4.115,4.115,0,0,0-.633-3.636A2.864,2.864,0,0,0,33.052,27.4Z" transform="translate(-911.158 11602.557)" fill="#189bd7"/>
    <path id="XMLID_2_" d="M37.482,24.271a2.891,2.891,0,0,0-.38-.09,3.067,3.067,0,0,0-.4-.072A10.577,10.577,0,0,0,35.13,24H30.391a.662.662,0,0,0-.326.072.745.745,0,0,0-.416.561l-1.013,6.4-.036.181a.871.871,0,0,1,.85-.724h1.773c3.491,0,6.223-1.411,7.019-5.517.018-.127.036-.235.054-.362a3.514,3.514,0,0,0-.651-.271A.642.642,0,0,0,37.482,24.271Z" transform="translate(-916.419 11605.342)" fill="#242e65"/>
    <path id="XMLID_1_" d="M6.171,4.975a.745.745,0,0,1,.416-.561.71.71,0,0,1,.326-.072h4.739a10.753,10.753,0,0,1,1.574.109c.145.018.271.054.4.072.127.036.253.054.38.09.054.018.127.036.181.054a3.514,3.514,0,0,1,.651.271,3.864,3.864,0,0,0-.814-3.473C13.118.434,11.49,0,9.409,0H3.349A.843.843,0,0,0,2.5.724L-.033,16.733a.519.519,0,0,0,.507.6H4.218l.941-5.951Z" transform="translate(-892.959 11625)" fill="#253d80"/>
  </g>
</svg>
