<svg xmlns="http://www.w3.org/2000/svg" width="49.231" height="49.231" viewBox="0 0 49.231 49.231">
  <g id="new-product" style="isolation: isolate">
    <path id="Path_370" data-name="Path 370" d="M250.382,300.764h11.911v14.293H248V296Zm0,0" transform="translate(-223.385 -266.62)" fill="#d3a06c"/>
    <path id="Path_371" data-name="Path 371" d="M118.293,315.057H104V300.764h11.911L118.293,296Zm0,0" transform="translate(-93.677 -266.62)" fill="#d3a06c"/>
    <path id="Path_372" data-name="Path 372" d="M262.293,296l2.382,4.764H250.382L248,296Zm0,0" transform="translate(-223.385 -266.62)" fill="#dfb28b"/>
    <path id="Path_373" data-name="Path 373" d="M96.675,296l-2.382,4.764H80L82.382,296Zm0,0" transform="translate(-72.06 -266.62)" fill="#dfb28b"/>
    <path id="Path_374" data-name="Path 374" d="M339.97,152l1.588,3.176A18.386,18.386,0,0,0,337.39,159L336,160.735l.3-2.414a9.467,9.467,0,0,1,1.191-3.534A9.327,9.327,0,0,1,339.97,152Zm0,0" transform="translate(-302.65 -136.913)" fill="#fcd770"/>
    <path id="Path_375" data-name="Path 375" d="M109.257,158.321l.3,2.414L108.169,159A18.386,18.386,0,0,0,104,155.176L105.588,152a9.327,9.327,0,0,1,2.478,2.787A9.467,9.467,0,0,1,109.257,158.321Zm0,0" transform="translate(-93.677 -136.913)" fill="#fcd770"/>
    <g id="Group_838" data-name="Group 838" transform="translate(3.97 2.382)">
      <path id="Path_376" data-name="Path 376" d="M412.764,113.818l-.794,1.358-.119,1.588-1.469-.373-1.469.373-.119-1.588L408,113.818l1.4-.6.985-1.215.985,1.215Zm0,0" transform="translate(-371.474 -103.265)" fill="#ff826e"/>
      <path id="Path_377" data-name="Path 377" d="M209.529,27.637l-1.588,2.716-.23,3.176-2.946-.746-2.946.746-.23-3.176L200,27.637l2.8-1.207L204.764,24l1.961,2.43Zm0,0" transform="translate(-184.119 -24)" fill="#ff826e"/>
      <path id="Path_378" data-name="Path 378" d="M44.764,113.818l-.794,1.358-.119,1.588-1.469-.373-1.469.373-.119-1.588L40,113.818l1.4-.6L42.382,112l.985,1.215Zm0,0" transform="translate(-40 -103.265)" fill="#ff826e"/>
    </g>
    <path id="Path_379" data-name="Path 379" d="M99.8,288H70.23l-3.176,6.352h2.873v14.293H100.1V294.352h2.873Zm-.982,1.588,1.588,3.176H87.887L86.3,289.588Zm-27.6,0H83.729l-1.588,3.176H69.624Zm27.3,17.469h-12.7V301.5H84.22v5.558h-12.7v-12.7H83.123l1.1-2.195v6.959h1.588v-6.959l1.1,2.195H98.513Zm0,0" transform="translate(-60.399 -259.414)"/>
    <path id="Path_380" data-name="Path 380" d="M128,416h4.764v1.588H128Zm0,0" transform="translate(-115.295 -374.71)"/>
    <path id="Path_381" data-name="Path 381" d="M128,448h4.764v1.588H128Zm0,0" transform="translate(-115.295 -403.533)"/>
    <path id="Path_382" data-name="Path 382" d="M192,448h1.588v1.588H192Zm0,0" transform="translate(-172.943 -403.533)"/>
    <path id="Path_383" data-name="Path 383" d="M190.764,23.076l3.667-.935,3.667.934.287-3.938,1.948-3.327-3.445-1.491-2.457-3.038-2.458,3.038-3.445,1.491,1.948,3.327Zm2.2-7.455,1.468-1.815,1.468,1.815,2.158.935-1.228,2.1-.176,2.415-2.222-.566-2.222.565-.176-2.415-1.228-2.1Zm0,0" transform="translate(-169.815 -10.161)"/>
    <path id="Path_384" data-name="Path 384" d="M34.421,103.962l1.154-1.97-2.044-.886-1.476-1.825-1.476,1.825-2.044.886,1.154,1.97.171,2.35,2.2-.558,2.2.559Zm-1.556-.485-.06.827-.749-.19-.749.19-.061-.827-.434-.742.757-.328.487-.6.487.6.757.328Zm0,0" transform="translate(-25.703 -89.427)"/>
    <path id="Path_385" data-name="Path 385" d="M402.422,103.962l1.154-1.97-2.044-.886-1.476-1.825-1.476,1.825-2.044.886,1.154,1.97.171,2.35,2.2-.558,2.2.559Zm-1.556-.485-.061.827-.749-.19-.749.19-.06-.827-.434-.742.757-.328.487-.6.487.6.757.328Zm0,0" transform="translate(-357.177 -89.427)"/>
    <path id="Path_386" data-name="Path 386" d="M94.263,144.89a17.61,17.61,0,0,1,3.99,3.659l3.145,3.93-.651-5.2a10.2,10.2,0,0,0-3.98-6.859l-.761-.57L93.68,144.5Zm2.289-2.581a8.618,8.618,0,0,1,2.566,4.791,19.227,19.227,0,0,0-3.4-3.132Zm0,0" transform="translate(-84.381 -125.967)"/>
    <path id="Path_387" data-name="Path 387" d="M325.2,147.269l-.651,5.2,3.145-3.931a17.625,17.625,0,0,1,3.99-3.659l.583-.389-2.327-4.654-.761.572A10.2,10.2,0,0,0,325.2,147.269Zm5.026-3.307a19.171,19.171,0,0,0-3.4,3.132A8.623,8.623,0,0,1,329.4,142.3Zm0,0" transform="translate(-292.337 -125.96)"/>
    <path id="Path_388" data-name="Path 388" d="M280,137.68h1.588v-3.327a16.362,16.362,0,0,1,3.787-10.458l-1.221-1.017A17.958,17.958,0,0,0,280,134.353Zm0,0" transform="translate(-252.208 -110.683)"/>
    <path id="Path_389" data-name="Path 389" d="M336,96h1.588v1.588H336Zm0,0" transform="translate(-302.65 -86.471)"/>
    <path id="Path_390" data-name="Path 390" d="M360,64h1.588v1.588H360Zm0,0" transform="translate(-324.268 -57.648)"/>
    <path id="Path_391" data-name="Path 391" d="M165.641,137.68h1.588v-3.327a17.96,17.96,0,0,0-4.154-11.474l-1.221,1.017a16.365,16.365,0,0,1,3.786,10.457Zm0,0" transform="translate(-145.79 -110.682)"/>
    <path id="Path_392" data-name="Path 392" d="M144,96h1.588v1.588H144Zm0,0" transform="translate(-129.707 -86.471)"/>
    <path id="Path_393" data-name="Path 393" d="M120,64h1.588v1.588H120Zm0,0" transform="translate(-108.089 -57.648)"/>
    <path id="Path_394" data-name="Path 394" d="M240,136h1.588v1.588H240Zm0,0" transform="translate(-216.179 -122.501)"/>
    <path id="Path_395" data-name="Path 395" d="M240,168h1.588v10.323H240Zm0,0" transform="translate(-216.179 -151.325)"/>
    <path id="Path_396" data-name="Path 396" d="M464,216h1.588v1.588H464Zm0,0" transform="translate(-417.945 -194.561)"/>
    <path id="Path_397" data-name="Path 397" d="M464,248h1.588v1.588H464Zm0,0" transform="translate(-417.945 -223.385)"/>
    <path id="Path_398" data-name="Path 398" d="M480,232h1.588v1.588H480Zm0,0" transform="translate(-432.357 -208.973)"/>
    <path id="Path_399" data-name="Path 399" d="M448,232h1.588v1.588H448Zm0,0" transform="translate(-403.533 -208.973)"/>
    <path id="Path_400" data-name="Path 400" d="M440,0h1.588V1.588H440Zm0,0" transform="translate(-396.327)"/>
    <path id="Path_401" data-name="Path 401" d="M440,32h1.588v1.588H440Zm0,0" transform="translate(-396.327 -28.824)"/>
    <path id="Path_402" data-name="Path 402" d="M456,16h1.588v1.588H456Zm0,0" transform="translate(-410.739 -14.412)"/>
    <path id="Path_403" data-name="Path 403" d="M424,16h1.588v1.588H424Zm0,0" transform="translate(-381.915 -14.412)"/>
    <path id="Path_404" data-name="Path 404" d="M16,248h1.588v1.588H16Zm0,0" transform="translate(-14.412 -223.385)"/>
    <path id="Path_405" data-name="Path 405" d="M16,280h1.588v1.588H16Zm0,0" transform="translate(-14.412 -252.208)"/>
    <path id="Path_406" data-name="Path 406" d="M32,264h1.588v1.588H32Zm0,0" transform="translate(-28.824 -237.796)"/>
    <path id="Path_407" data-name="Path 407" d="M0,264H1.588v1.588H0Zm0,0" transform="translate(0 -237.796)"/>
    <path id="Path_408" data-name="Path 408" d="M16,0h1.588V1.588H16Zm0,0" transform="translate(-14.412)"/>
    <path id="Path_409" data-name="Path 409" d="M16,32h1.588v1.588H16Zm0,0" transform="translate(-14.412 -28.824)"/>
    <path id="Path_410" data-name="Path 410" d="M32,16h1.588v1.588H32Zm0,0" transform="translate(-28.824 -14.412)"/>
    <path id="Path_411" data-name="Path 411" d="M0,16H1.588v1.588H0Zm0,0" transform="translate(0 -14.412)"/>
  </g>
</svg>
