<svg xmlns="http://www.w3.org/2000/svg" width="39.504" height="39.504" viewBox="0 0 39.504 39.504">
  <g id="Group_989" data-name="Group 989" transform="translate(-541 -680)">
    <g id="Group_836" data-name="Group 836" transform="translate(550.832 696.699)">
      <path id="Path_353" data-name="Path 353" d="M36,28H48.743V38.195H36Z" transform="translate(-24.531 -28)" fill="#f6c34e"/>
      <path id="Path_354" data-name="Path 354" d="M40,44H54.018V55.469H40Z" transform="translate(-25.982 -33.805)" fill="#f6c34e"/>
      <path id="Path_355" data-name="Path 355" d="M18,44H32.018V55.469H18Z" transform="translate(-18 -33.805)" fill="#f6c34e"/>
    </g>
    <g id="Group_837" data-name="Group 837" transform="translate(541 680)" style="isolation: isolate">
      <path id="Path_356" data-name="Path 356" d="M5.637,23.372h5.1a.637.637,0,0,0,.637-.637v-5.1A.637.637,0,0,0,10.734,17h-5.1A.637.637,0,0,0,5,17.637v5.1A.637.637,0,0,0,5.637,23.372Zm.637-5.1H10.1V22.1H6.274Z" transform="translate(-2.451 -6.805)" fill="#f6c34e"/>
      <path id="Path_357" data-name="Path 357" d="M10.734,41h-5.1A.637.637,0,0,0,5,41.637v5.1a.637.637,0,0,0,.637.637h5.1a.637.637,0,0,0,.637-.637v-5.1A.637.637,0,0,0,10.734,41ZM10.1,46.1H6.274V42.274H10.1Z" transform="translate(-2.451 -15.514)" fill="#f6c34e"/>
      <path id="Path_358" data-name="Path 358" d="M17,7H31.018V8.274H17Z" transform="translate(-6.805 -3.177)" fill="#4a4a4a"/>
      <path id="Path_359" data-name="Path 359" d="M17,11H31.018v1.274H17Z" transform="translate(-6.805 -4.628)" fill="#4a4a4a"/>
      <path id="Path_360" data-name="Path 360" d="M17,19H31.018v1.274H17Z" transform="translate(-6.805 -7.531)" fill="#4a4a4a"/>
      <path id="Path_361" data-name="Path 361" d="M17,23H31.018v1.274H17Z" transform="translate(-6.805 -8.982)" fill="#4a4a4a"/>
      <path id="Path_362" data-name="Path 362" d="M10.471,4.381H5.637A.637.637,0,0,0,5,5.018v5.1a.637.637,0,0,0,.637.637h5.1a.637.637,0,0,0,.637-.637V5.282l1.088-1.088-.9-.9ZM9.2,5.655,6.274,8.577V5.655Zm.9,3.823H7.175L10.1,6.556Z" transform="translate(-2.451 -1.832)" fill="#f6c34e"/>
      <path id="Path_363" data-name="Path 363" d="M11.558,27.293l-1.088,1.088H5.637A.637.637,0,0,0,5,29.018v5.1a.637.637,0,0,0,.637.637h5.1a.637.637,0,0,0,.637-.637V29.282l1.088-1.088ZM9.2,29.655,6.274,32.577V29.655Zm.9,3.823H7.175L10.1,30.556Z" transform="translate(-2.451 -10.54)" fill="#f6c34e"/>
      <path id="Path_364" data-name="Path 364" d="M39.867,40.5a.637.637,0,0,0,.637-.637V28.4a.637.637,0,0,0-.637-.637H36.681V18.2a.637.637,0,0,0-.637-.637H27.761V1.637A.637.637,0,0,0,27.124,1H1.637A.637.637,0,0,0,1,1.637V34.769a.637.637,0,0,0,.637.637h9.557v4.46a.637.637,0,0,0,.637.637ZM31.584,29.035h2.549v2.549H31.584Zm-7.646-1.274V18.84h3.823v3.186a.637.637,0,0,0,.637.637h2.549a.637.637,0,0,0,.637-.637V18.84h3.823v8.92Zm5.1-8.92h1.274v2.549H29.035ZM11.195,28.4v5.734H2.274V2.274H26.486V17.566H23.3a.637.637,0,0,0-.637.637v1.911H11.195v1.274H22.663v1.274H11.195v1.274H22.663v3.823H11.832A.637.637,0,0,0,11.195,28.4Zm6.372.637h2.549v2.549H17.566Zm-5.1,0h3.823v3.186a.637.637,0,0,0,.637.637h3.823a.637.637,0,0,0,.637-.637V29.035h3.823V39.23H12.469ZM39.23,39.23H26.486V29.035h3.823v3.186a.637.637,0,0,0,.637.637h3.823a.637.637,0,0,0,.637-.637V29.035H39.23Z" transform="translate(-1 -1)" fill="#4a4a4a"/>
      <path id="Path_365" data-name="Path 365" d="M55,57h2.549v1.274H55Z" transform="translate(-20.593 -21.319)" fill="#777"/>
      <path id="Path_366" data-name="Path 366" d="M49,39h2.549v1.274H49Z" transform="translate(-18.416 -14.788)" fill="#777"/>
      <path id="Path_367" data-name="Path 367" d="M55,53h2.549v1.274H55Z" transform="translate(-20.593 -19.868)" fill="#777"/>
      <path id="Path_368" data-name="Path 368" d="M33,57h2.549v1.274H33Z" transform="translate(-12.611 -21.319)" fill="#777"/>
      <path id="Path_369" data-name="Path 369" d="M33,53h2.549v1.274H33Z" transform="translate(-12.611 -19.868)" fill="#777"/>
    </g>
  </g>
</svg>
