<svg xmlns="http://www.w3.org/2000/svg" width="38.223" height="47.547" viewBox="0 0 38.223 47.547">
  <g id="XMLID_2590_" transform="translate(-50.202)" style="isolation: isolate">
    <path id="XMLID_1522_" d="M82.158,209l-13,22.518-1.886-7.076-7.07,1.9,13-22.518Z" transform="translate(-9.071 -184.904)" fill="#91def5"/>
    <path id="XMLID_1552_" d="M215.359,209l13,22.518,1.885-7.076,7.07,1.9-13-22.518Z" transform="translate(-149.82 -184.904)" fill="#b0e7f8"/>
    <circle id="XMLID_1459_" cx="14.858" cy="14.858" r="14.858" transform="translate(54.455 0.929)" fill="#ffcb7c"/>
    <circle id="XMLID_1458_" cx="10.772" cy="10.772" r="10.772" transform="translate(58.541 5.015)" fill="#fff"/>
    <path id="XMLID_1456_" d="M208.1,114.49l1.134,2.3,2.535.368a.743.743,0,0,1,.412,1.267l-1.834,1.788.434,2.525a.743.743,0,0,1-1.078.784l-2.268-1.191-2.267,1.193a.743.743,0,0,1-1.078-.783l.432-2.525-1.835-1.788a.743.743,0,0,1,.411-1.267l2.535-.369,1.133-2.3A.743.743,0,0,1,208.1,114.49Z" transform="translate(-138.123 -103.483)" fill="#ffcb7c"/>
    <g id="XMLID_212_" transform="translate(50.201 0)">
      <path id="XMLID_215_" d="M88.3,40.983,80.294,27.117a15.787,15.787,0,1,0-21.963,0L50.326,40.983a.929.929,0,0,0,1.046,1.361l6.171-1.663,1.646,6.176a.929.929,0,0,0,1.7.225l8.423-14.589,8.423,14.588a.929.929,0,0,0,1.7-.225l1.646-6.176,6.171,1.663A.929.929,0,0,0,88.3,40.983Zm-32.917-25.2a13.93,13.93,0,1,1,13.93,13.93A13.945,13.945,0,0,1,55.383,15.787ZM60.4,44.208,59.1,39.3a.929.929,0,0,0-1.139-.658l-4.9,1.321L59.764,28.35a15.7,15.7,0,0,0,7.98,3.146Zm20.262-5.563a.929.929,0,0,0-1.139.658l-1.307,4.905L70.881,31.5a15.7,15.7,0,0,0,7.98-3.146l6.707,11.616Z" transform="translate(-50.201 0)"/>
      <path id="XMLID_885_" d="M192.542,108.3a1.661,1.661,0,0,0,.423,1.713l1.485,1.447-.35,2.044a1.669,1.669,0,0,0,2.426,1.762l1.835-.965,1.835.964a1.672,1.672,0,0,0,2.425-1.763l-.351-2.043,1.484-1.448a1.672,1.672,0,0,0-.927-2.851l-2.052-.3-.918-1.859a1.661,1.661,0,0,0-1.5-.931h0a1.662,1.662,0,0,0-1.5.932l-.917,1.86-2.052.3A1.662,1.662,0,0,0,192.542,108.3Zm4.152.331a.929.929,0,0,0,.7-.508l.967-1.96.968,1.959a.929.929,0,0,0,.7.508l2.163.314-1.564,1.526a.929.929,0,0,0-.267.822l.37,2.154-1.935-1.016a.929.929,0,0,0-.864,0l-1.934,1.017.369-2.154a.929.929,0,0,0-.267-.822l-1.565-1.525Z" transform="translate(-179.248 -94.41)"/>
      <path id="XMLID_887_" d="M141.7,75.248a11.7,11.7,0,0,0,4.466-22.519.929.929,0,0,0-.709,1.716,9.844,9.844,0,1,1-7.494-.008.929.929,0,0,0-.705-1.718A11.7,11.7,0,0,0,141.7,75.248Z" transform="translate(-122.59 -47.76)"/>
      <path id="XMLID_888_" d="M247.059,45.857a.929.929,0,1,0-.657-.272A.936.936,0,0,0,247.059,45.857Z" transform="translate(-227.935 -39.914)"/>
    </g>
  </g>
</svg>
