<svg xmlns="http://www.w3.org/2000/svg" width="29.703" height="29.5" viewBox="0 0 29.703 29.5">
  <path id="Shape" d="M0,14.749A14.852,14.852,0,1,1,14.851,29.5,14.818,14.818,0,0,1,0,14.749ZM14.851,27.231a12.566,12.566,0,0,0,8.4-3.205,6.607,6.607,0,0,0-2.165-1.135c-.17-.061-.348-.123-.574-.2l-.588-.2c-2.125-.712-3.082-1.288-3.493-2.636a2.821,2.821,0,0,1-.084-.338,3.561,3.561,0,0,1,.21-2.114,3.214,3.214,0,0,1,.9-1.2,4.258,4.258,0,0,0,1.588-3.473A4.3,4.3,0,0,0,14.851,8.32a4.252,4.252,0,0,0-4.188,4.413,4.287,4.287,0,0,0,1.523,3.441,3.451,3.451,0,0,1,.871,1.051,3.345,3.345,0,0,1,.3,2.325,1.734,1.734,0,0,1-.069.257c-.361,1.327-1.29,1.9-3.333,2.59l-.679.227c-.263.088-.469.161-.666.233A6.582,6.582,0,0,0,6.45,24.023,12.563,12.563,0,0,0,14.851,27.231Zm6.475-14.5a6.517,6.517,0,0,1-2.374,5.185,1.018,1.018,0,0,0-.295.385,1.4,1.4,0,0,0-.066.8c.01.046.015.069.019.083.118.383.621.686,2.044,1.163l.585.195c.24.08.433.146.621.214a8.616,8.616,0,0,1,2.948,1.6,12.365,12.365,0,0,0,2.61-7.607,12.567,12.567,0,0,0-25.133,0,12.364,12.364,0,0,0,2.609,7.606,8.656,8.656,0,0,1,2.927-1.627c.219-.08.443-.158.724-.252l.674-.226c1.315-.447,1.782-.733,1.895-1.13,0,.01,0-.008.011-.05a1.157,1.157,0,0,0-.089-.786,1.371,1.371,0,0,0-.361-.41,6.556,6.556,0,0,1-2.3-5.141,6.526,6.526,0,0,1,6.473-6.682A6.574,6.574,0,0,1,21.326,12.733Z" fill="#4b160f"/>
</svg>
